<mxfile host="www.draw.io" modified="2020-02-28T14:09:41.034Z" agent="Mozilla/5.0 (Windows NT 10.0; Win64; x64) AppleWebKit/537.36 (KHTML, like Gecko) Chrome/80.0.3987.122 Safari/537.36" etag="gAya0Qh4BK7DWNzvrOQx" version="12.7.9" type="github">
  <diagram id="9V6dprv8v3OV2SpAJNnx" name="第 1 页">
    <mxGraphModel dx="1038" dy="499" grid="1" gridSize="10" guides="1" tooltips="1" connect="1" arrows="1" fold="1" page="1" pageScale="1" pageWidth="827" pageHeight="1169" math="0" shadow="0">
      <root>
        <mxCell id="0" />
        <mxCell id="1" parent="0" />
        <mxCell id="70FhO6NMaa17mZtYLNuV-12" style="rounded=0;orthogonalLoop=1;jettySize=auto;html=1;exitX=0.5;exitY=0.5;exitDx=0;exitDy=0;exitPerimeter=0;dashed=1;" edge="1" parent="1" source="70FhO6NMaa17mZtYLNuV-1" target="70FhO6NMaa17mZtYLNuV-11">
          <mxGeometry relative="1" as="geometry" />
        </mxCell>
        <mxCell id="70FhO6NMaa17mZtYLNuV-13" style="edgeStyle=none;rounded=0;orthogonalLoop=1;jettySize=auto;html=1;exitX=0.5;exitY=0.5;exitDx=0;exitDy=0;exitPerimeter=0;entryX=1;entryY=0;entryDx=0;entryDy=0;dashed=1;" edge="1" parent="1" source="70FhO6NMaa17mZtYLNuV-1" target="70FhO6NMaa17mZtYLNuV-9">
          <mxGeometry relative="1" as="geometry" />
        </mxCell>
        <mxCell id="70FhO6NMaa17mZtYLNuV-14" style="edgeStyle=none;rounded=0;orthogonalLoop=1;jettySize=auto;html=1;exitX=0.5;exitY=0.5;exitDx=0;exitDy=0;exitPerimeter=0;entryX=1;entryY=0.5;entryDx=0;entryDy=0;dashed=1;" edge="1" parent="1" source="70FhO6NMaa17mZtYLNuV-1" target="70FhO6NMaa17mZtYLNuV-10">
          <mxGeometry relative="1" as="geometry" />
        </mxCell>
        <mxCell id="70FhO6NMaa17mZtYLNuV-15" style="edgeStyle=none;rounded=0;orthogonalLoop=1;jettySize=auto;html=1;exitX=0.5;exitY=0.5;exitDx=0;exitDy=0;exitPerimeter=0;entryX=0.627;entryY=1.013;entryDx=0;entryDy=0;entryPerimeter=0;dashed=1;" edge="1" parent="1" source="70FhO6NMaa17mZtYLNuV-1" target="70FhO6NMaa17mZtYLNuV-2">
          <mxGeometry relative="1" as="geometry" />
        </mxCell>
        <mxCell id="70FhO6NMaa17mZtYLNuV-16" style="edgeStyle=none;rounded=0;orthogonalLoop=1;jettySize=auto;html=1;exitX=0.5;exitY=0.5;exitDx=0;exitDy=0;exitPerimeter=0;dashed=1;" edge="1" parent="1" source="70FhO6NMaa17mZtYLNuV-1" target="70FhO6NMaa17mZtYLNuV-3">
          <mxGeometry relative="1" as="geometry" />
        </mxCell>
        <mxCell id="70FhO6NMaa17mZtYLNuV-17" style="edgeStyle=none;rounded=0;orthogonalLoop=1;jettySize=auto;html=1;exitX=0.5;exitY=0.5;exitDx=0;exitDy=0;exitPerimeter=0;entryX=0.258;entryY=1;entryDx=0;entryDy=0;entryPerimeter=0;dashed=1;" edge="1" parent="1" source="70FhO6NMaa17mZtYLNuV-1" target="70FhO6NMaa17mZtYLNuV-4">
          <mxGeometry relative="1" as="geometry" />
        </mxCell>
        <mxCell id="70FhO6NMaa17mZtYLNuV-18" style="edgeStyle=none;rounded=0;orthogonalLoop=1;jettySize=auto;html=1;exitX=0.5;exitY=0.5;exitDx=0;exitDy=0;exitPerimeter=0;entryX=0.076;entryY=0.847;entryDx=0;entryDy=0;entryPerimeter=0;dashed=1;" edge="1" parent="1" source="70FhO6NMaa17mZtYLNuV-1" target="70FhO6NMaa17mZtYLNuV-5">
          <mxGeometry relative="1" as="geometry" />
        </mxCell>
        <mxCell id="70FhO6NMaa17mZtYLNuV-19" style="edgeStyle=none;rounded=0;orthogonalLoop=1;jettySize=auto;html=1;exitX=0.5;exitY=0.5;exitDx=0;exitDy=0;exitPerimeter=0;dashed=1;" edge="1" parent="1" source="70FhO6NMaa17mZtYLNuV-1" target="70FhO6NMaa17mZtYLNuV-6">
          <mxGeometry relative="1" as="geometry" />
        </mxCell>
        <mxCell id="70FhO6NMaa17mZtYLNuV-20" style="edgeStyle=none;rounded=0;orthogonalLoop=1;jettySize=auto;html=1;exitX=0.5;exitY=0.5;exitDx=0;exitDy=0;exitPerimeter=0;dashed=1;" edge="1" parent="1" source="70FhO6NMaa17mZtYLNuV-1" target="70FhO6NMaa17mZtYLNuV-7">
          <mxGeometry relative="1" as="geometry" />
        </mxCell>
        <mxCell id="70FhO6NMaa17mZtYLNuV-21" style="edgeStyle=none;rounded=0;orthogonalLoop=1;jettySize=auto;html=1;exitX=0.5;exitY=0.5;exitDx=0;exitDy=0;exitPerimeter=0;dashed=1;" edge="1" parent="1" source="70FhO6NMaa17mZtYLNuV-1" target="70FhO6NMaa17mZtYLNuV-8">
          <mxGeometry relative="1" as="geometry" />
        </mxCell>
        <mxCell id="70FhO6NMaa17mZtYLNuV-1" value="Actor" style="shape=umlActor;verticalLabelPosition=bottom;labelBackgroundColor=#ffffff;verticalAlign=top;html=1;outlineConnect=0;" vertex="1" parent="1">
          <mxGeometry x="384" y="260" width="30" height="60" as="geometry" />
        </mxCell>
        <mxCell id="70FhO6NMaa17mZtYLNuV-2" value="添加规格" style="ellipse;whiteSpace=wrap;html=1;" vertex="1" parent="1">
          <mxGeometry x="240" y="160" width="90" height="60" as="geometry" />
        </mxCell>
        <mxCell id="70FhO6NMaa17mZtYLNuV-3" value="修改规格" style="ellipse;whiteSpace=wrap;html=1;" vertex="1" parent="1">
          <mxGeometry x="310" y="110" width="90" height="60" as="geometry" />
        </mxCell>
        <mxCell id="70FhO6NMaa17mZtYLNuV-4" value="添加品牌" style="ellipse;whiteSpace=wrap;html=1;" vertex="1" parent="1">
          <mxGeometry x="414" y="120" width="90" height="60" as="geometry" />
        </mxCell>
        <mxCell id="70FhO6NMaa17mZtYLNuV-5" value="修改品牌" style="ellipse;whiteSpace=wrap;html=1;" vertex="1" parent="1">
          <mxGeometry x="504" y="170" width="90" height="60" as="geometry" />
        </mxCell>
        <mxCell id="70FhO6NMaa17mZtYLNuV-6" value="添加分类" style="ellipse;whiteSpace=wrap;html=1;" vertex="1" parent="1">
          <mxGeometry x="540" y="250" width="90" height="60" as="geometry" />
        </mxCell>
        <mxCell id="70FhO6NMaa17mZtYLNuV-7" value="修改分类" style="ellipse;whiteSpace=wrap;html=1;" vertex="1" parent="1">
          <mxGeometry x="504" y="340" width="90" height="60" as="geometry" />
        </mxCell>
        <mxCell id="70FhO6NMaa17mZtYLNuV-8" value="添加秒杀商品" style="ellipse;whiteSpace=wrap;html=1;" vertex="1" parent="1">
          <mxGeometry x="420" y="380" width="90" height="60" as="geometry" />
        </mxCell>
        <mxCell id="70FhO6NMaa17mZtYLNuV-9" value="订单查看" style="ellipse;whiteSpace=wrap;html=1;" vertex="1" parent="1">
          <mxGeometry x="220" y="340" width="90" height="60" as="geometry" />
        </mxCell>
        <mxCell id="70FhO6NMaa17mZtYLNuV-10" value="订单修改" style="ellipse;whiteSpace=wrap;html=1;" vertex="1" parent="1">
          <mxGeometry x="190" y="260" width="90" height="60" as="geometry" />
        </mxCell>
        <mxCell id="70FhO6NMaa17mZtYLNuV-11" value="查看秒杀商品" style="ellipse;whiteSpace=wrap;html=1;" vertex="1" parent="1">
          <mxGeometry x="310" y="380" width="90" height="60" as="geometry" />
        </mxCell>
      </root>
    </mxGraphModel>
  </diagram>
</mxfile>
